<svg width="165" height="32" viewBox="0 0 165 32" fill="none" xmlns="http://www.w3.org/2000/svg">
<g clip-path="url(#clip0_55_36)">
<path d="M26.7657 31.7474H4.23929C1.91184 31.7474 0 29.8105 0 27.4526V4.63159C0 2.2737 1.91184 0.336853 4.23929 0.336853H26.7657C29.0932 0.336853 31.005 2.2737 31.005 4.63159V27.4526C31.005 29.8105 29.0932 31.7474 26.7657 31.7474Z" fill="#FBC331"/>
<path d="M15.0454 31.7474H26.7658C29.0933 31.7474 31.0051 29.8105 31.0051 27.4526V4.63159C31.0051 2.2737 29.0933 0.336853 26.7658 0.336853H15.0454V31.7474Z" fill="white"/>
<path d="M14.4635 14.4842C13.7985 14.3158 13.2167 13.9789 12.8842 13.5579C12.5517 13.1368 12.3023 12.5474 12.3023 11.8737C12.3023 11.1158 12.6348 10.4421 13.2167 10.021C13.7154 9.68421 14.2973 9.43158 14.9623 9.34736V7.41052C13.6323 7.49473 12.4686 7.91579 11.5542 8.75789C10.5567 9.68421 9.97485 10.7789 9.97485 12.1263C9.97485 12.8 10.058 13.3053 10.2242 13.8105C10.3905 14.3158 10.6398 14.7368 10.9723 15.0737C11.3048 15.4105 11.7204 15.7474 12.1361 16C12.5517 16.2526 13.0504 16.421 13.6323 16.5895C14.0479 16.6737 14.4635 16.8421 14.796 16.9263V14.6526C14.8791 14.6526 14.6298 14.5684 14.4635 14.4842Z" fill="black"/>
<path d="M12.5517 22.1474C11.6373 21.8105 10.8061 21.221 10.1411 20.5474H9.97485V23.3263C10.723 23.6632 11.4711 24 12.3023 24.2526C13.0504 24.5053 13.9648 24.5895 15.0454 24.5895V22.6526C14.2141 22.6526 13.3829 22.4842 12.5517 22.1474Z" fill="black"/>
<path d="M15.7102 9.34735C16.6246 9.34735 17.4558 9.51577 18.287 9.85262C19.1183 10.1895 19.7833 10.6105 20.282 11.1158H20.4482V8.50525C19.7833 8.16841 19.0351 7.91577 18.2039 7.74735C17.4558 7.57893 16.6246 7.49472 15.7102 7.49472V9.34735Z" fill="#FBC331"/>
<path d="M20.2821 16.9263C19.7834 16.2526 18.9521 15.6632 17.7884 15.3263C17.3728 15.1579 16.7909 15.0737 16.1259 14.9053C15.9597 14.9053 15.7934 14.821 15.6272 14.821V17.0947C15.9597 17.1789 16.2922 17.2632 16.7078 17.4316C17.3728 17.6 17.9547 17.9368 18.2871 18.3579C18.6196 18.7789 18.7859 19.2842 18.7859 19.9579C18.7859 20.8 18.4534 21.4737 17.8715 21.9789C17.3728 22.4 16.6247 22.6526 15.7103 22.7368V24.6737C16.5416 24.6737 17.2065 24.5053 17.7884 24.2526C18.4534 24 19.0353 23.6631 19.534 23.1579C20.0327 22.7368 20.3652 22.1474 20.6146 21.5579C20.864 20.9684 21.0302 20.2947 21.0302 19.621C21.1133 18.5263 20.7808 17.6842 20.2821 16.9263Z" fill="#FBC331"/>
<path d="M37.9043 7.66318V24.4211H35.0781V17.0948H27.0152V24.4211H24.189V7.66318H27.0152V14.8211H35.0781V7.66318H37.9043Z" fill="#FBC331"/>
<path d="M53.0327 20.9684H45.8841L44.7204 24.4211H41.811L47.879 7.57895H51.1209L57.1889 24.4211H54.2796L53.0327 20.9684ZM52.2846 18.7789L49.5415 10.9474L46.7153 18.7789H52.2846Z" fill="#FBC331"/>
<path d="M69.9899 24.4211L66.0831 17.6842H63.9219V24.4211H61.0957V7.66318H66.9975C68.3274 7.66318 69.408 7.91581 70.3224 8.33686C71.2368 8.75791 71.9017 9.4316 72.3174 10.1895C72.733 10.9474 72.9824 11.7895 72.9824 12.7158C72.9824 13.8105 72.6499 14.8211 71.9849 15.6632C71.3199 16.5895 70.3224 17.179 68.9924 17.5158L73.2317 24.5053H69.9899V24.4211ZM63.9219 15.4948H66.9975C68.0781 15.4948 68.8262 15.2421 69.3249 14.7369C69.8237 14.2316 70.1562 13.5579 70.1562 12.6316C70.1562 11.7053 69.9068 11.1158 69.408 10.6105C68.9093 10.1053 68.0781 9.85265 66.9975 9.85265H63.9219V15.4948Z" fill="#FBC331"/>
<path d="M80.6297 9.85263V14.7368H86.5314V17.0105H80.6297V22.1474H87.2795V24.4211H77.8035V7.57895H87.2795V9.85263H80.6297Z" fill="#FBC331"/>
<path d="M102.076 24C101.161 23.579 100.413 23.0737 99.9144 22.3158C99.4156 21.5579 99.1663 20.7158 99.1663 19.7895H102.159C102.242 20.5474 102.491 21.1369 102.99 21.5579C103.489 22.0632 104.237 22.2316 105.151 22.2316C106.149 22.2316 106.897 21.979 107.395 21.5579C107.894 21.1369 108.227 20.5474 108.227 19.7895C108.227 19.2 108.06 18.779 107.728 18.4421C107.395 18.1053 106.98 17.8526 106.481 17.6C105.982 17.4316 105.317 17.179 104.403 17.0105C103.322 16.7579 102.408 16.4211 101.66 16.1684C100.995 15.8316 100.413 15.4105 99.9144 14.8211C99.4156 14.2316 99.1663 13.3895 99.1663 12.2948C99.1663 11.3684 99.4156 10.4421 99.9144 9.76844C100.413 9.01054 101.078 8.50528 101.992 8.08423C102.907 7.66317 103.904 7.49475 105.068 7.49475C106.73 7.49475 108.06 7.9158 109.141 8.6737C110.222 9.5158 110.804 10.6105 110.887 12.0421H107.811C107.728 11.4526 107.479 10.9474 106.897 10.4421C106.398 10.0211 105.65 9.76844 104.736 9.76844C103.904 9.76844 103.239 9.93686 102.741 10.3579C102.242 10.779 101.992 11.3684 101.992 12.1263C101.992 12.6316 102.159 13.0526 102.491 13.3895C102.824 13.7263 103.239 13.979 103.738 14.1474C104.237 14.3158 104.902 14.5684 105.733 14.7369C106.897 15.0737 107.811 15.3263 108.476 15.6632C109.224 16 109.806 16.4211 110.305 17.0948C110.804 17.7684 111.053 18.6105 111.053 19.6211C111.053 20.4632 110.804 21.3053 110.388 22.0632C109.889 22.8211 109.224 23.4105 108.31 23.9158C107.395 24.3369 106.398 24.5895 105.151 24.5895C103.987 24.5895 102.99 24.4211 102.076 24Z" fill="black"/>
<path d="M118.368 22.2316H124.103V24.4211H115.542V7.66318H118.368V22.2316Z" fill="black"/>
<path d="M130.504 7.66318V24.4211H127.677V7.66318H130.504Z" fill="black"/>
<path d="M135.657 11.5368C136.405 10.2737 137.486 9.17894 138.816 8.50526C140.146 7.74736 141.642 7.41052 143.222 7.41052C145.05 7.41052 146.63 7.83157 148.043 8.75789C149.456 9.6 150.453 10.8632 151.118 12.4632H147.793C147.378 11.5368 146.713 10.9474 145.965 10.4421C145.217 10.021 144.302 9.76842 143.222 9.76842C142.058 9.76842 141.06 10.021 140.229 10.5263C139.315 11.0316 138.65 11.7053 138.151 12.7158C137.652 13.6421 137.403 14.7368 137.403 16C137.403 17.2632 137.652 18.3579 138.151 19.2842C138.65 20.2105 139.315 20.9684 140.229 21.4737C141.144 21.9789 142.141 22.2316 143.222 22.2316C144.219 22.2316 145.133 21.9789 145.965 21.5579C146.713 21.1368 147.378 20.4632 147.793 19.5368H151.118C150.453 21.1368 149.456 22.4 148.043 23.2421C146.63 24.0842 145.05 24.5053 143.222 24.5053C141.642 24.5053 140.146 24.1684 138.816 23.4105C137.486 22.6526 136.405 21.6421 135.657 20.3789C134.909 19.1158 134.494 17.6 134.494 16C134.494 14.3158 134.826 12.8842 135.657 11.5368Z" fill="black"/>
<path d="M158.35 9.85263V14.7368H164.252V17.0105H158.35V22.1474H165V24.4211H155.607V7.57895H165V9.85263H158.35Z" fill="black"/>
</g>
<defs>
<clipPath id="clip0_55_36">
<rect width="165" height="32" fill="white"/>
</clipPath>
</defs>
</svg>
